<svg xmlns="http://www.w3.org/2000/svg" version="1.1" xmlns:xlink="http://www.w3.org/1999/xlink" xmlns:svgjs="http://svgjs.dev/svgjs" width="1000" height="464" viewBox="0 0 1000 464"><g transform="matrix(1,0,0,1,-0.6060606060606233,0.3727571192353025)"><svg viewBox="0 0 396 184" data-background-color="#ffffff" preserveAspectRatio="xMidYMid meet" height="464" width="1000" xmlns="http://www.w3.org/2000/svg" xmlns:xlink="http://www.w3.org/1999/xlink"><g id="tight-bounds" transform="matrix(1,0,0,1,0.2400000000000091,-0.1478174783174495)"><svg viewBox="0 0 395.52 184.2956349566349" height="184.2956349566349" width="395.52"><rect width="395.52" height="184.2956349566349" fill="url(#641cae5f-2088-48b6-b185-dcb281a4af7f)" mask="url(&quot;#0c07f31e-1e87-45f5-8eb3-4c44d9b9e232&quot;)" data-fill-palette-color="tertiary"></rect><rect width="395.52" height="184.2956349566349" fill="url(#7eca7297-24f8-4221-883c-c52cc9a42fb0)" mask="url(&quot;#af2df714-fac8-4df4-a06c-a71b322bb130&quot;)" data-fill-palette-color="accent"></rect><rect width="395.52" height="184.2956349566349" fill="url(#231900c5-3655-487c-bcab-9aa1d032be77)" mask="url(&quot;#d0b97ee2-ddca-4c87-b325-4f981c98ef14&quot;)" data-fill-palette-color="primary"></rect><g><svg viewBox="0 0 395.52 184.2956349566349" height="184.2956349566349" width="395.52"><g><svg viewBox="0 0 395.52 184.2956349566349" height="184.2956349566349" width="395.52"><g transform="matrix(1,0,0,1,0,113.90209597738645)"><svg viewBox="0 0 395.52 70.39353897924846" height="70.39353897924846" width="395.52"><g id="textblocktransform"><svg viewBox="0 0 395.52 70.39353897924846" height="70.39353897924846" width="395.52" id="textblock"><g><svg viewBox="0 0 395.52 70.39353897924846" height="70.39353897924846" width="395.52"><g transform="matrix(1,0,0,1,0,0)"><svg width="395.52" viewBox="1.8 -35.9 267.43 47.599999999999994" height="70.39353897924846" data-palette-color="url(#231900c5-3655-487c-bcab-9aa1d032be77)"></svg></g></svg></g></svg></g></svg></g><g transform="matrix(1,0,0,1,139.5014319213958,0)"><svg viewBox="0 0 116.5171361572084 97.28387086932139" height="97.28387086932139" width="116.5171361572084"><g><svg xmlns="http://www.w3.org/2000/svg" xmlns:xlink="http://www.w3.org/1999/xlink" version="1.1" x="8" y="0" viewBox="5 6.447 90.001 87.106" enable-background="new 0 0 100 100" xml:space="preserve" height="97.28387086932139" width="100.5171361572084" class="icon-icon-0" data-fill-palette-color="accent" id="icon-0"></svg></g></svg></g><g></g></svg></g></svg></g><defs><linearGradient x1="0" x2="1" y1="0.5" y2="0.5" id="231900c5-3655-487c-bcab-9aa1d032be77"><stop stop-color="#ffa62e" offset="0"></stop><stop stop-color="#f71b3d" offset="1"></stop></linearGradient><linearGradient x1="0" x2="1" y1="0.5" y2="0.5" id="7eca7297-24f8-4221-883c-c52cc9a42fb0"><stop stop-color="#ffa62e" offset="0"></stop><stop stop-color="#f71b3d" offset="1"></stop></linearGradient><linearGradient x1="0" x2="1" y1="0.5" y2="0.5" id="641cae5f-2088-48b6-b185-dcb281a4af7f"><stop stop-color="#ffa62e" offset="0"></stop><stop stop-color="#f71b3d" offset="1"></stop></linearGradient></defs><mask id="d0b97ee2-ddca-4c87-b325-4f981c98ef14"><g id="SvgjsG3799"><svg viewBox="0 0 395.52 184.2956349566349" height="184.2956349566349" width="395.52"><g><svg viewBox="0 0 395.52 184.2956349566349" height="184.2956349566349" width="395.52"><g><svg viewBox="0 0 395.52 184.2956349566349" height="184.2956349566349" width="395.52"><g transform="matrix(1,0,0,1,0,113.90209597738645)"><svg viewBox="0 0 395.52 70.39353897924846" height="70.39353897924846" width="395.52"><g id="SvgjsG3798"><svg viewBox="0 0 395.52 70.39353897924846" height="70.39353897924846" width="395.52" id="SvgjsSvg3797"><g><svg viewBox="0 0 395.52 70.39353897924846" height="70.39353897924846" width="395.52"><g transform="matrix(1,0,0,1,0,0)"><svg width="395.52" viewBox="1.8 -35.9 267.43 47.599999999999994" height="70.39353897924846" data-palette-color="url(#231900c5-3655-487c-bcab-9aa1d032be77)"><path d="M32.1-9.8L32.1-9.8 33.3-8Q29.25-3.4 25.2-1.2 21.15 1 16.5 1L16.5 1Q10.75 1 6.28-4.05 1.8-9.1 1.8-15.5L1.8-15.5Q1.8-23.55 7.88-29.73 13.95-35.9 22-35.9L22-35.9Q25.2-35.9 30-34.3L30-34.3 29.4-27.3 27.7-27.3Q27.7-29.15 26.45-30.2 25.2-31.25 23.63-31.53 22.05-31.8 19.7-31.8L19.7-31.8Q13.9-31.8 9.6-28.4 5.3-25 5.3-19.1L5.3-19.1Q5.3-14.8 6.9-11.45 8.5-8.1 10.9-6.3L10.9-6.3Q15.65-2.8 20-2.8L20-2.8Q22.7-2.8 26-4.55 29.3-6.3 32.1-9.8ZM41.62-34.8Q42.75-34.8 43.37-34.05 44-33.3 44-32.13 44-30.95 43.05-30.18 42.1-29.4 40.97-29.4 39.85-29.4 39.22-30.15 38.6-30.9 38.6-32.02 38.6-33.15 39.55-33.98 40.5-34.8 41.62-34.8ZM47.1-1.4L47.1 0 37 0 37-1.4 37.8-1.4Q39.15-1.4 39.52-1.85 39.9-2.3 39.9-3.3L39.9-3.3 39.9-18.3Q39.9-19.25 39.27-19.68 38.65-20.1 37-20.1L37-20.1 37-21.5Q38-21.5 40.02-22.23 42.05-22.95 43.1-23.6L43.1-23.6 44-23.8 44-3.6Q44-2.8 44.07-2.45 44.15-2.1 44.65-1.75 45.15-1.4 46.2-1.4L46.2-1.4 47.1-1.4ZM76.4-1.4L76.4 0 67.8 0 67.8-1.4 68-1.4Q68.55-1.4 68.92-1.95 69.3-2.5 69.3-3.3L69.3-3.3 69.3-16Q69.3-18.25 68.22-19.43 67.15-20.6 65.2-20.6L65.2-20.6Q62.4-20.6 60.25-17.6 58.1-14.6 58.1-13.1L58.1-13.1 58.1-3.6Q58.1-2.8 58.17-2.45 58.25-2.1 58.75-1.75 59.25-1.4 60.3-1.4L60.3-1.4 61.2-1.4 61.2 0 51.1 0 51.1-1.4 51.9-1.4Q53.25-1.4 53.62-1.85 54-2.3 54-3.3L54-3.3 54-18.3Q54-19.25 53.37-19.68 52.75-20.1 51.1-20.1L51.1-20.1 51.1-21.5Q52.1-21.5 54.12-22.23 56.15-22.95 57.2-23.6L57.2-23.6 58.1-23.8 58.1-17.4Q59.25-20.55 61.65-22.28 64.05-24 67.5-24L67.5-24Q69.3-24 70.55-23.2 71.8-22.4 72.35-21.15L72.35-21.15Q73.3-19 73.3-16.9L73.3-16.9 73.3-3.4Q73.3-2.7 73.4-2.35L73.4-2.35Q73.65-1.4 75.5-1.4L75.5-1.4 76.4-1.4ZM99.49-6.1L99.49-6.1 100.39-5.2Q97.19 0.7 88.89 0.7L88.89 0.7Q85.04 0.7 82.32-2.7 79.59-6.1 79.59-10.3L79.59-10.3Q79.59-15.95 83.27-19.98 86.94-24 92.19-24L92.19-24Q94.69-24 96.59-22.55L96.59-22.55Q99.99-19.9 99.99-15.7L99.99-15.7Q99.99-15.1 99.77-14.25 99.54-13.4 99.39-13.4L99.39-13.4 83.29-12.9Q83.29-9 85.74-5.7 88.19-2.4 91.69-2.4L91.69-2.4Q94.19-2.4 96.32-3.43 98.44-4.45 99.49-6.1ZM83.79-14.9L83.79-14.9 95.49-15.4Q95.59-15.4 95.59-16.3L95.59-16.3Q95.59-18.9 94.07-20 92.54-21.1 89.87-21.1 87.19-21.1 85.49-19.45 83.79-17.8 83.79-14.9ZM144.09-1.4L144.09 0 135.39 0 135.39-1.4 135.59-1.4Q136.14-1.4 136.52-1.95 136.89-2.5 136.89-3.3L136.89-3.3 136.89-16Q136.89-18 135.92-19.3 134.94-20.6 133.42-20.6 131.89-20.6 130.62-19.9 129.34-19.2 128.57-18.2 127.79-17.2 127.19-16.1L127.19-16.1Q126.19-14.15 126.19-13.2L126.19-13.2 126.19-3.4Q126.19-1.4 128.39-1.4L128.39-1.4 129.29-1.4 129.29 0 120.59 0 120.59-1.4 120.89-1.4Q121.34-1.4 121.72-1.95 122.09-2.5 122.09-3.3L122.09-3.3 122.09-16Q122.09-18 121.14-19.3 120.19-20.6 118.57-20.6 116.94-20.6 115.49-19.55 114.04-18.5 113.19-17.1L113.19-17.1Q111.49-14.25 111.49-13.1L111.49-13.1 111.49-3.6Q111.49-2.8 111.57-2.45 111.64-2.1 112.14-1.75 112.64-1.4 113.69-1.4L113.69-1.4 114.59-1.4 114.59 0 104.49 0 104.49-1.4 105.29-1.4Q106.64-1.4 107.02-1.85 107.39-2.3 107.39-3.3L107.39-3.3 107.39-18.3Q107.39-19.25 106.77-19.68 106.14-20.1 104.49-20.1L104.49-20.1 104.49-21.5Q105.49-21.5 107.52-22.23 109.54-22.95 110.59-23.6L110.59-23.6 111.49-23.8 111.49-17.4Q112.94-20.8 114.97-22.4 116.99-24 120.49-24L120.49-24Q122.09-24 123.29-23.33 124.49-22.65 125.09-21.55L125.09-21.55Q126.09-19.6 126.19-17.4L126.19-17.4Q127.34-20.75 129.44-22.38 131.54-24 135.09-24L135.09-24Q136.89-24 138.14-23.2 139.39-22.4 139.94-21.15L139.94-21.15Q140.89-19 140.89-16.9L140.89-16.9 140.89-3.4Q140.89-2.7 140.99-2.35L140.99-2.35Q141.24-1.4 143.09-1.4L143.09-1.4 144.09-1.4ZM169.59-1.4L169.59 0 162.39 0 162.39-4Q159.89-1.3 158.24-0.3 156.59 0.7 153.76 0.7 150.94 0.7 149.36-0.63 147.79-1.95 147.79-4.35 147.79-6.75 149.86-9.03 151.94-11.3 154.71-12.48 157.49-13.65 159.59-14.28 161.69-14.9 162.39-14.9L162.39-14.9 162.39-16Q162.39-20.7 158.49-20.7L158.49-20.7Q155.79-20.7 153.46-19.55 151.14-18.4 149.99-16.6L149.99-16.6 148.99-17.5Q152.34-24 160.59-24L160.59-24Q162.69-24 164.06-22.88 165.44-21.75 165.91-20.25 166.39-18.75 166.39-16.9L166.39-16.9 166.39-3.4Q166.39-2.75 166.49-2.4 166.59-2.05 167.11-1.73 167.64-1.4 168.69-1.4L168.69-1.4 169.59-1.4ZM162.39-6.8L162.39-6.8 162.39-12.9Q158.49-12.15 155.14-9.9 151.79-7.65 151.79-5L151.79-5Q151.79-3.95 152.81-3.18 153.84-2.4 155.36-2.4 156.89-2.4 158.99-3.78 161.09-5.15 162.39-6.8ZM172.79-2.4L172.79-2.4 173.49-8.9 175.19-8.8Q175.19-6.05 178.46-4.38 181.74-2.7 185.91-2.7 190.09-2.7 192.19-3.98 194.29-5.25 194.29-7.2L194.29-7.2Q194.29-10.5 190.79-13.1L190.79-13.1Q189.34-14.15 187.74-14.95L187.74-14.95Q184.09-16.85 183.16-17.38 182.24-17.9 181.09-18.45 179.94-19 178.96-19.63 177.99-20.25 176.89-21.15L176.89-21.15Q174.39-23.15 174.39-25.63 174.39-28.1 175.26-29.95 176.14-31.8 177.46-32.85 178.79-33.9 180.59-34.6L180.59-34.6Q183.64-35.7 187.41-35.7 191.19-35.7 194.69-33.8L194.69-33.8 194.09-28 192.39-28Q192.39-32.7 184.49-32.7L184.49-32.7Q180.84-32.7 179.01-31.55 177.19-30.4 177.19-28.4L177.19-28.4Q177.19-25.2 187.59-20.7L187.59-20.7Q194.44-17.75 196.34-14.15L196.34-14.15Q197.29-12.35 197.29-10.2L197.29-10.2Q197.29-5 193.11-2.15 188.94 0.7 183.04 0.7 177.14 0.7 172.79-2.4ZM210.88 10.2L210.88 11.7 200.78 11.7 200.78 10.2 201.38 10.2Q202.48 10.2 203.01 9.85 203.53 9.5 203.61 9.15 203.68 8.8 203.68 8L203.68 8 203.68-17.9Q203.68-20.2 200.78-20.2L200.78-20.2 200.78-21.5Q201.73-21.5 203.78-22.28 205.83-23.05 206.78-23.7L206.78-23.7 207.68-23.8 207.68-17.5Q208.73-20.35 211.08-22.18 213.43-24 216.88-24 220.33-24 222.36-21.75 224.38-19.5 224.38-15.7L224.38-15.7Q224.38-8.65 220.68-3.98 216.98 0.7 211.68 0.7L211.68 0.7Q209.83 0.7 207.68-0.3L207.68-0.3 207.68 8.2Q207.68 8.9 207.78 9.25L207.78 9.25Q208.03 10.2 209.88 10.2L209.88 10.2 210.88 10.2ZM207.68-13.4L207.68-13.4 207.68-4.5Q207.88-4.2 208.28-3.7 208.68-3.2 209.96-2.4 211.23-1.6 212.58-1.6L212.58-1.6Q216.23-1.6 218.66-5.05 221.08-8.5 221.08-13.8L221.08-13.8Q221.08-16.75 219.26-18.68 217.43-20.6 214.71-20.6 211.98-20.6 209.83-17.57 207.68-14.55 207.68-13.4ZM237.83 0.7L237.83 0.7Q233.43 0.7 230.48-2.6 227.53-5.9 227.53-10.3L227.53-10.3Q227.53-15.9 231.76-19.95 235.98-24 240.68-24 245.38-24 248.26-20.68 251.13-17.35 251.13-13L251.13-13Q251.13-7.55 247.11-3.43 243.08 0.7 237.83 0.7ZM231.03-13Q231.03-8.35 233.86-5.28 236.68-2.2 240.21-2.2 243.73-2.2 245.73-4.85 247.73-7.5 247.73-10.3L247.73-10.3Q247.73-14.55 245.11-17.73 242.48-20.9 238.73-20.9 234.98-20.9 233.01-18.38 231.03-15.85 231.03-13L231.03-13ZM268.83-3.1L268.83-3.1 269.23-1.9Q265.48 0.7 261.03 0.7L261.03 0.7Q259.43 0.7 258.28-0.45 257.13-1.6 257.13-3.5L257.13-3.5 257.13-21.2 254.23-21.2 254.23-23.3 255.33-23.3Q256.98-23.3 258.4-25.3 259.83-27.3 259.83-29L259.83-29 261.13-29 261.13-23.3 267.93-23.3 267.93-21.2 263.03-21.2Q261.13-21.2 261.13-19.4L261.13-19.4 261.13-5.1Q261.13-1.8 263.53-1.8L263.53-1.8Q266.23-1.8 268.83-3.1Z" opacity="1" transform="matrix(1,0,0,1,0,0)" fill="white" class="undefined-text-0" id="SvgjsPath3796"></path></svg></g></svg></g></svg></g></svg></g><g transform="matrix(1,0,0,1,139.5014319213958,0)"><svg viewBox="0 0 116.5171361572084 97.28387086932139" height="97.28387086932139" width="116.5171361572084"><g><svg xmlns="http://www.w3.org/2000/svg" xmlns:xlink="http://www.w3.org/1999/xlink" version="1.1" x="8" y="0" viewBox="5 6.447 90.001 87.106" enable-background="new 0 0 100 100" xml:space="preserve" height="97.28387086932139" width="100.5171361572084" class="icon-icon-0" data-fill-palette-color="accent" id="SvgjsSvg3795"></svg></g></svg></g><g></g></svg></g></svg></g><defs><linearGradient x1="0" x2="1" y1="0.5" y2="0.5" id="SvgjsLinearGradient3794"><stop stop-color="#ffa62e" offset="0"></stop><stop stop-color="#f71b3d" offset="1"></stop></linearGradient><mask></mask></defs></svg></g></mask><mask id="af2df714-fac8-4df4-a06c-a71b322bb130"><g id="SvgjsG3812"><svg viewBox="0 0 395.52 184.2956349566349" height="184.2956349566349" width="395.52"><g><svg viewBox="0 0 395.52 184.2956349566349" height="184.2956349566349" width="395.52"><g><svg viewBox="0 0 395.52 184.2956349566349" height="184.2956349566349" width="395.52"><g transform="matrix(1,0,0,1,0,113.90209597738645)"><svg viewBox="0 0 395.52 70.39353897924846" height="70.39353897924846" width="395.52"><g id="SvgjsG3811"><svg viewBox="0 0 395.52 70.39353897924846" height="70.39353897924846" width="395.52" id="SvgjsSvg3810"><g><svg viewBox="0 0 395.52 70.39353897924846" height="70.39353897924846" width="395.52"><g transform="matrix(1,0,0,1,0,0)"><svg width="395.52" viewBox="1.8 -35.9 267.43 47.599999999999994" height="70.39353897924846" data-palette-color="url(#231900c5-3655-487c-bcab-9aa1d032be77)"></svg></g></svg></g></svg></g></svg></g><g transform="matrix(1,0,0,1,139.5014319213958,0)"><svg viewBox="0 0 116.5171361572084 97.28387086932139" height="97.28387086932139" width="116.5171361572084"><g><svg xmlns="http://www.w3.org/2000/svg" xmlns:xlink="http://www.w3.org/1999/xlink" version="1.1" x="8" y="0" viewBox="5 6.447 90.001 87.106" enable-background="new 0 0 100 100" xml:space="preserve" height="97.28387086932139" width="100.5171361572084" class="icon-icon-0" data-fill-palette-color="accent" id="SvgjsSvg3809"><path d="M85.691 6.447H14.309C9.176 6.447 5 10.623 5 15.756v68.488c0 5.133 4.176 9.309 9.309 9.309h71.382c5.134 0 9.31-4.176 9.31-9.309V15.756C95 10.623 90.824 6.447 85.691 6.447zM8.184 15.756c0-3.377 2.748-6.125 6.125-6.125h71.382c3.377 0 6.125 2.748 6.125 6.125v14.47 3.23H8.184v-3.23V15.756zM85.691 90.369H14.309c-3.377 0-6.125-2.748-6.125-6.125V36.641h83.632v47.604C91.816 87.621 89.068 90.369 85.691 90.369z" fill="white"></path><path d="M17.425 27.38h12.54c1.409 0 2.557-1.146 2.557-2.556v-6.561c0-1.409-1.147-2.557-2.557-2.557h-12.54c-1.409 0-2.557 1.147-2.557 2.557v6.561C14.868 26.233 16.016 27.38 17.425 27.38zM18.053 18.891h11.285v5.306H18.053V18.891z" fill="white"></path><path d="M43.729 27.38H56.27c1.41 0 2.558-1.146 2.558-2.556v-6.561c0-1.409-1.147-2.557-2.558-2.557H43.729c-1.409 0-2.557 1.147-2.557 2.557v6.561C41.173 26.233 42.32 27.38 43.729 27.38zM44.357 18.891h11.286v5.306H44.357V18.891z" fill="white"></path><path d="M70.035 27.38h12.54c1.409 0 2.557-1.146 2.557-2.556v-6.561c0-1.409-1.147-2.557-2.557-2.557h-12.54c-1.409 0-2.557 1.147-2.557 2.557v6.561C67.479 26.233 68.626 27.38 70.035 27.38zM70.662 18.891h11.285v5.306H70.662V18.891z" fill="white"></path><path d="M63.414 58.338L44.042 47.575c-1.614-0.896-3.273-0.973-4.559-0.219-1.286 0.757-2.023 2.248-2.023 4.091v22.186c0 1.844 0.737 3.334 2.023 4.092 0.585 0.344 1.247 0.515 1.948 0.515 0.838 0 1.731-0.245 2.61-0.733l19.371-10.763c1.848-1.025 2.906-2.558 2.906-4.202S65.262 59.363 63.414 58.338zM61.867 63.96L42.495 74.723c-0.581 0.321-1.116 0.422-1.398 0.258-0.279-0.166-0.453-0.682-0.453-1.348V51.447c0-0.666 0.174-1.182 0.453-1.347 0.282-0.166 0.817-0.065 1.398 0.258L61.867 61.12c0.783 0.435 1.27 0.979 1.27 1.42S62.65 63.525 61.867 63.96z" fill="white"></path></svg></g></svg></g><g><rect width="139.5014319213958" height="6.348161991280854" y="89.93570887804053" x="256.0185680786042" fill="white"></rect><rect width="139.5014319213958" height="6.348161991280854" y="89.93570887804053" x="0" fill="white"></rect><rect width="139.5014319213958" height="6.348161991280854" y="77.23938489547882" x="256.0185680786042" fill="white"></rect><rect width="139.5014319213958" height="6.348161991280854" y="77.23938489547882" x="0" fill="white"></rect></g></svg></g></svg></g><defs><linearGradient x1="0" x2="1" y1="0.5" y2="0.5" id="SvgjsLinearGradient3808"><stop stop-color="#ffa62e" offset="0"></stop><stop stop-color="#f71b3d" offset="1"></stop></linearGradient><linearGradient x1="0" x2="1" y1="0.5" y2="0.5" id="SvgjsLinearGradient3807"><stop stop-color="#ffa62e" offset="0"></stop><stop stop-color="#f71b3d" offset="1"></stop></linearGradient><mask></mask></defs><mask id="SvgjsMask3806"><g id="SvgjsG3805"><svg viewBox="0 0 395.52 184.2956349566349" height="184.2956349566349" width="395.52"><g><svg viewBox="0 0 395.52 184.2956349566349" height="184.2956349566349" width="395.52"><g><svg viewBox="0 0 395.52 184.2956349566349" height="184.2956349566349" width="395.52"><g transform="matrix(1,0,0,1,0,113.90209597738645)"><svg viewBox="0 0 395.52 70.39353897924846" height="70.39353897924846" width="395.52"><g id="SvgjsG3804"><svg viewBox="0 0 395.52 70.39353897924846" height="70.39353897924846" width="395.52" id="SvgjsSvg3803"><g><svg viewBox="0 0 395.52 70.39353897924846" height="70.39353897924846" width="395.52"><g transform="matrix(1,0,0,1,0,0)"><svg width="395.52" viewBox="1.8 -35.9 267.43 47.599999999999994" height="70.39353897924846" data-palette-color="url(#231900c5-3655-487c-bcab-9aa1d032be77)"></svg></g></svg></g></svg></g></svg></g><g transform="matrix(1,0,0,1,139.5014319213958,0)"><svg viewBox="0 0 116.5171361572084 97.28387086932139" height="97.28387086932139" width="116.5171361572084"><g><svg xmlns="http://www.w3.org/2000/svg" xmlns:xlink="http://www.w3.org/1999/xlink" version="1.1" x="8" y="0" viewBox="5 6.447 90.001 87.106" enable-background="new 0 0 100 100" xml:space="preserve" height="97.28387086932139" width="100.5171361572084" class="icon-icon-0" data-fill-palette-color="accent" id="SvgjsSvg3801"></svg></g></svg></g><g></g></svg></g></svg></g><defs><linearGradient x1="0" x2="1" y1="0.5" y2="0.5" id="SvgjsLinearGradient3800"><stop stop-color="#ffa62e" offset="0"></stop><stop stop-color="#f71b3d" offset="1"></stop></linearGradient><mask></mask></defs></svg></g></mask></svg></g></mask><mask id="0c07f31e-1e87-45f5-8eb3-4c44d9b9e232"><g id="SvgjsG3839"><svg viewBox="0 0 395.52 184.2956349566349" height="184.2956349566349" width="395.52"><g><svg viewBox="0 0 395.52 184.2956349566349" height="184.2956349566349" width="395.52"><g><svg viewBox="0 0 395.52 184.2956349566349" height="184.2956349566349" width="395.52"><g transform="matrix(1,0,0,1,0,113.90209597738645)"><svg viewBox="0 0 395.52 70.39353897924846" height="70.39353897924846" width="395.52"><g id="SvgjsG3838"><svg viewBox="0 0 395.52 70.39353897924846" height="70.39353897924846" width="395.52" id="SvgjsSvg3837"><g><svg viewBox="0 0 395.52 70.39353897924846" height="70.39353897924846" width="395.52"><g transform="matrix(1,0,0,1,0,0)"><svg width="395.52" viewBox="1.8 -35.9 267.43 47.599999999999994" height="70.39353897924846" data-palette-color="url(#231900c5-3655-487c-bcab-9aa1d032be77)"></svg></g></svg></g></svg></g></svg></g><g transform="matrix(1,0,0,1,139.5014319213958,0)"><svg viewBox="0 0 116.5171361572084 97.28387086932139" height="97.28387086932139" width="116.5171361572084"><g><svg xmlns="http://www.w3.org/2000/svg" xmlns:xlink="http://www.w3.org/1999/xlink" version="1.1" x="8" y="0" viewBox="5 6.447 90.001 87.106" enable-background="new 0 0 100 100" xml:space="preserve" height="97.28387086932139" width="100.5171361572084" class="icon-icon-0" data-fill-palette-color="accent" id="SvgjsSvg3836"></svg></g></svg></g><g></g></svg></g></svg></g><defs><linearGradient x1="0" x2="1" y1="0.5" y2="0.5" id="SvgjsLinearGradient3835"><stop stop-color="#ffa62e" offset="0"></stop><stop stop-color="#f71b3d" offset="1"></stop></linearGradient><linearGradient x1="0" x2="1" y1="0.5" y2="0.5" id="SvgjsLinearGradient3834"><stop stop-color="#ffa62e" offset="0"></stop><stop stop-color="#f71b3d" offset="1"></stop></linearGradient><linearGradient x1="0" x2="1" y1="0.5" y2="0.5" id="SvgjsLinearGradient3833"><stop stop-color="#ffa62e" offset="0"></stop><stop stop-color="#f71b3d" offset="1"></stop></linearGradient><mask></mask></defs><mask id="SvgjsMask3832"><g id="SvgjsG3831"><svg viewBox="0 0 395.52 184.2956349566349" height="184.2956349566349" width="395.52"><g><svg viewBox="0 0 395.52 184.2956349566349" height="184.2956349566349" width="395.52"><g><svg viewBox="0 0 395.52 184.2956349566349" height="184.2956349566349" width="395.52"><g transform="matrix(1,0,0,1,0,113.90209597738645)"><svg viewBox="0 0 395.52 70.39353897924846" height="70.39353897924846" width="395.52"><g id="SvgjsG3830"><svg viewBox="0 0 395.52 70.39353897924846" height="70.39353897924846" width="395.52" id="SvgjsSvg3829"><g><svg viewBox="0 0 395.52 70.39353897924846" height="70.39353897924846" width="395.52"><g transform="matrix(1,0,0,1,0,0)"><svg width="395.52" viewBox="1.8 -35.9 267.43 47.599999999999994" height="70.39353897924846" data-palette-color="url(#231900c5-3655-487c-bcab-9aa1d032be77)"></svg></g></svg></g></svg></g></svg></g><g transform="matrix(1,0,0,1,139.5014319213958,0)"><svg viewBox="0 0 116.5171361572084 97.28387086932139" height="97.28387086932139" width="116.5171361572084"><g><svg xmlns="http://www.w3.org/2000/svg" xmlns:xlink="http://www.w3.org/1999/xlink" version="1.1" x="8" y="0" viewBox="5 6.447 90.001 87.106" enable-background="new 0 0 100 100" xml:space="preserve" height="97.28387086932139" width="100.5171361572084" class="icon-icon-0" data-fill-palette-color="accent" id="SvgjsSvg3827"></svg></g></svg></g><g></g></svg></g></svg></g><defs><linearGradient x1="0" x2="1" y1="0.5" y2="0.5" id="SvgjsLinearGradient3826"><stop stop-color="#ffa62e" offset="0"></stop><stop stop-color="#f71b3d" offset="1"></stop></linearGradient><mask></mask></defs></svg></g></mask><mask id="SvgjsMask3825"><g id="SvgjsG3824"><svg viewBox="0 0 395.52 184.2956349566349" height="184.2956349566349" width="395.52"><g><svg viewBox="0 0 395.52 184.2956349566349" height="184.2956349566349" width="395.52"><g><svg viewBox="0 0 395.52 184.2956349566349" height="184.2956349566349" width="395.52"><g transform="matrix(1,0,0,1,0,113.90209597738645)"><svg viewBox="0 0 395.52 70.39353897924846" height="70.39353897924846" width="395.52"><g id="SvgjsG3823"><svg viewBox="0 0 395.52 70.39353897924846" height="70.39353897924846" width="395.52" id="SvgjsSvg3822"><g><svg viewBox="0 0 395.52 70.39353897924846" height="70.39353897924846" width="395.52"><g transform="matrix(1,0,0,1,0,0)"><svg width="395.52" viewBox="1.8 -35.9 267.43 47.599999999999994" height="70.39353897924846" data-palette-color="url(#231900c5-3655-487c-bcab-9aa1d032be77)"></svg></g></svg></g></svg></g></svg></g><g transform="matrix(1,0,0,1,139.5014319213958,0)"><svg viewBox="0 0 116.5171361572084 97.28387086932139" height="97.28387086932139" width="116.5171361572084"><g><svg xmlns="http://www.w3.org/2000/svg" xmlns:xlink="http://www.w3.org/1999/xlink" version="1.1" x="8" y="0" viewBox="5 6.447 90.001 87.106" enable-background="new 0 0 100 100" xml:space="preserve" height="97.28387086932139" width="100.5171361572084" class="icon-icon-0" data-fill-palette-color="accent" id="SvgjsSvg3821"></svg></g></svg></g><g></g></svg></g></svg></g><defs><linearGradient x1="0" x2="1" y1="0.5" y2="0.5" id="SvgjsLinearGradient3820"><stop stop-color="#ffa62e" offset="0"></stop><stop stop-color="#f71b3d" offset="1"></stop></linearGradient><linearGradient x1="0" x2="1" y1="0.5" y2="0.5" id="SvgjsLinearGradient3819"><stop stop-color="#ffa62e" offset="0"></stop><stop stop-color="#f71b3d" offset="1"></stop></linearGradient><mask></mask></defs><mask id="SvgjsMask3818"><g id="SvgjsG3817"><svg viewBox="0 0 395.52 184.2956349566349" height="184.2956349566349" width="395.52"><g><svg viewBox="0 0 395.52 184.2956349566349" height="184.2956349566349" width="395.52"><g><svg viewBox="0 0 395.52 184.2956349566349" height="184.2956349566349" width="395.52"><g transform="matrix(1,0,0,1,0,113.90209597738645)"><svg viewBox="0 0 395.52 70.39353897924846" height="70.39353897924846" width="395.52"><g id="SvgjsG3816"><svg viewBox="0 0 395.52 70.39353897924846" height="70.39353897924846" width="395.52" id="SvgjsSvg3815"><g><svg viewBox="0 0 395.52 70.39353897924846" height="70.39353897924846" width="395.52"><g transform="matrix(1,0,0,1,0,0)"><svg width="395.52" viewBox="1.8 -35.9 267.43 47.599999999999994" height="70.39353897924846" data-palette-color="url(#231900c5-3655-487c-bcab-9aa1d032be77)"></svg></g></svg></g></svg></g></svg></g><g transform="matrix(1,0,0,1,139.5014319213958,0)"><svg viewBox="0 0 116.5171361572084 97.28387086932139" height="97.28387086932139" width="116.5171361572084"><g><svg xmlns="http://www.w3.org/2000/svg" xmlns:xlink="http://www.w3.org/1999/xlink" version="1.1" x="8" y="0" viewBox="5 6.447 90.001 87.106" enable-background="new 0 0 100 100" xml:space="preserve" height="97.28387086932139" width="100.5171361572084" class="icon-icon-0" data-fill-palette-color="accent" id="SvgjsSvg3814"></svg></g></svg></g><g></g></svg></g></svg></g><defs><linearGradient x1="0" x2="1" y1="0.5" y2="0.5" id="SvgjsLinearGradient3813"><stop stop-color="#ffa62e" offset="0"></stop><stop stop-color="#f71b3d" offset="1"></stop></linearGradient><mask></mask></defs></svg></g></mask></svg></g></mask></svg></g></mask></svg><rect width="395.52" height="184.2956349566349" fill="none" stroke="none" visibility="hidden"></rect></g></svg></g></svg>